<svg id="svg" version="1.1" xmlns="http://www.w3.org/2000/svg" xmlns:xlink="http://www.w3.org/1999/xlink" width="400" height="400" viewBox="0, 0, 400,400"><g id="svgg"><path id="path0" d="M26.538 10.100 C 26.436 10.265,25.103 10.400,23.576 10.400 C 21.992 10.400,20.800 10.572,20.800 10.800 C 20.800 11.020,20.271 11.200,19.624 11.200 C 18.977 11.200,18.336 11.380,18.200 11.600 C 18.064 11.820,17.513 12.000,16.976 12.000 C 16.439 12.000,16.000 12.180,16.000 12.400 C 16.000 12.620,15.640 12.800,15.200 12.800 C 14.760 12.800,14.400 12.980,14.400 13.200 C 14.400 13.420,14.040 13.600,13.600 13.600 C 13.160 13.600,12.800 13.738,12.800 13.906 C 12.800 14.074,12.091 14.649,11.225 15.184 C 10.359 15.720,9.740 16.302,9.849 16.479 C 9.958 16.655,9.767 16.800,9.424 16.800 C 9.081 16.800,8.798 16.935,8.795 17.100 C 8.792 17.265,7.622 18.646,6.195 20.170 C 4.768 21.693,3.600 23.178,3.600 23.470 C 3.600 23.761,3.420 24.000,3.200 24.000 C 2.980 24.000,2.800 24.360,2.800 24.800 C 2.800 25.240,2.665 25.601,2.500 25.603 C 2.102 25.607,1.200 27.579,1.200 28.446 C 1.200 28.824,0.975 29.208,0.700 29.300 C 0.302 29.433,0.179 52.430,0.096 142.133 L -0.008 254.800 184.930 254.800 C 286.647 254.800,376.650 254.919,384.939 255.065 L 400.008 255.330 399.904 142.398 C 399.821 52.483,399.698 29.433,399.300 29.300 C 399.025 29.208,398.800 28.608,398.800 27.967 C 398.800 27.325,398.654 26.800,398.475 26.800 C 398.296 26.800,397.902 26.170,397.600 25.400 C 397.298 24.630,396.904 24.000,396.725 24.000 C 396.546 24.000,396.400 23.752,396.400 23.448 C 396.400 23.145,395.725 22.195,394.900 21.338 C 394.075 20.480,393.145 19.289,392.832 18.689 C 392.520 18.090,392.115 17.600,391.933 17.600 C 391.750 17.600,390.859 16.880,389.952 16.000 C 389.045 15.120,388.055 14.400,387.752 14.400 C 387.448 14.400,387.200 14.220,387.200 14.000 C 387.200 13.780,386.840 13.600,386.400 13.600 C 385.960 13.600,385.600 13.420,385.600 13.200 C 385.600 12.980,385.240 12.800,384.800 12.800 C 384.360 12.800,384.000 12.664,384.000 12.497 C 384.000 12.131,381.133 11.200,380.006 11.200 C 379.563 11.200,379.200 11.020,379.200 10.800 C 379.200 10.575,378.089 10.400,376.667 10.400 C 375.273 10.400,374.022 10.289,373.887 10.153 C 373.529 9.796,26.759 9.743,26.538 10.100 M373.274 34.758 C 373.783 34.954,374.650 35.510,375.200 35.991 L 376.200 36.867 376.200 132.573 C 376.200 237.318,376.379 229.753,373.868 231.006 C 372.104 231.886,28.151 231.911,26.480 231.032 C 23.755 229.597,24.000 239.314,24.000 132.850 L 24.000 36.909 25.054 35.855 L 26.108 34.801 190.754 34.700 C 281.309 34.644,359.213 34.554,363.874 34.500 C 368.535 34.445,372.765 34.561,373.274 34.758 M160.100 319.065 C 159.493 319.310,159.444 320.484,160.016 321.056 C 160.804 321.844,160.057 341.126,159.197 342.200 C 159.021 342.420,158.749 343.635,158.592 344.900 C 158.436 346.165,158.149 347.200,157.954 347.200 C 157.759 347.200,157.600 347.740,157.600 348.400 C 157.600 349.060,157.420 349.600,157.200 349.600 C 156.980 349.600,156.800 350.039,156.800 350.576 C 156.800 351.113,156.620 351.664,156.400 351.800 C 156.180 351.936,156.000 352.397,156.000 352.824 C 156.000 353.251,155.820 353.600,155.600 353.600 C 155.380 353.600,155.200 353.960,155.200 354.400 C 155.200 354.840,155.020 355.200,154.800 355.200 C 154.580 355.200,154.400 355.560,154.400 356.000 C 154.400 356.440,154.220 356.800,154.000 356.800 C 153.780 356.800,153.600 357.160,153.600 357.600 C 153.600 358.040,153.454 358.400,153.275 358.400 C 153.096 358.400,152.702 359.030,152.400 359.800 C 152.098 360.570,151.704 361.200,151.525 361.200 C 151.346 361.200,151.200 361.520,151.200 361.912 C 151.200 362.303,150.840 362.883,150.400 363.200 C 149.960 363.517,149.600 364.057,149.600 364.400 C 149.600 364.743,149.240 365.283,148.800 365.600 C 148.360 365.917,148.000 366.425,148.000 366.728 C 148.000 367.031,147.460 367.783,146.800 368.400 C 146.140 369.017,145.600 369.694,145.600 369.905 C 145.600 370.240,144.211 371.883,141.211 375.100 L 140.372 376.000 120.314 376.000 C 98.566 376.000,98.383 376.017,96.200 378.200 C 94.403 379.997,93.300 383.920,94.400 384.600 C 94.620 384.736,94.800 385.271,94.800 385.790 C 94.800 387.213,97.097 389.231,99.410 389.841 C 102.352 390.615,297.648 390.615,300.590 389.841 C 302.903 389.231,305.200 387.213,305.200 385.790 C 305.200 385.271,305.380 384.736,305.600 384.600 C 305.820 384.464,306.000 383.744,306.000 383.000 C 306.000 382.256,305.820 381.536,305.600 381.400 C 305.380 381.264,305.200 380.830,305.200 380.436 C 305.200 380.041,304.661 379.155,304.003 378.466 C 301.617 375.970,301.917 376.000,279.749 376.000 L 259.595 376.000 258.697 374.951 C 258.204 374.375,257.035 373.086,256.100 372.088 C 255.165 371.089,254.400 370.104,254.400 369.897 C 254.400 369.690,253.860 369.017,253.200 368.400 C 252.540 367.783,252.000 367.031,252.000 366.728 C 252.000 366.425,251.640 365.917,251.200 365.600 C 250.760 365.283,250.400 364.769,250.400 364.459 C 250.400 364.148,250.082 363.603,249.693 363.247 C 249.304 362.891,248.539 361.700,247.993 360.600 C 247.447 359.500,246.865 358.540,246.700 358.467 C 246.535 358.393,246.400 357.988,246.400 357.567 C 246.400 357.145,246.220 356.800,246.000 356.800 C 245.780 356.800,245.600 356.440,245.600 356.000 C 245.600 355.560,245.420 355.200,245.200 355.200 C 244.980 355.200,244.800 354.840,244.800 354.400 C 244.800 353.960,244.620 353.600,244.400 353.600 C 244.180 353.600,244.000 353.251,244.000 352.824 C 244.000 352.397,243.820 351.936,243.600 351.800 C 243.380 351.664,243.200 351.113,243.200 350.576 C 243.200 350.039,243.020 349.600,242.800 349.600 C 242.580 349.600,242.400 349.060,242.400 348.400 C 242.400 347.740,242.238 347.200,242.039 347.200 C 241.841 347.200,241.553 346.120,241.400 344.799 C 241.247 343.479,240.959 342.298,240.761 342.176 C 240.562 342.053,240.400 341.074,240.400 340.000 C 240.400 338.926,240.220 337.936,240.000 337.800 C 239.404 337.432,239.474 321.914,240.077 320.590 C 240.466 319.736,240.448 319.475,239.977 319.177 C 239.383 318.801,161.027 318.691,160.100 319.065 " stroke="none" fill="#325876" fill-rule="evenodd"></path><path id="path1" d="M146.414 67.919 C 142.373 69.905,142.068 74.824,145.766 78.378 C 146.555 79.137,147.200 79.956,147.200 80.200 C 147.200 80.444,146.555 81.263,145.766 82.022 C 139.094 88.434,146.692 97.135,153.567 90.954 C 155.969 88.794,156.031 88.794,158.433 90.954 C 165.308 97.135,172.906 88.434,166.234 82.022 C 164.422 80.279,164.414 80.334,166.800 77.724 C 172.911 71.037,164.302 63.232,158.022 69.766 C 156.298 71.559,155.704 71.560,153.978 69.769 C 151.566 67.263,149.017 66.640,146.414 67.919 M234.800 67.726 C 230.352 69.826,229.884 74.647,233.766 78.378 C 234.555 79.137,235.200 79.956,235.200 80.200 C 235.200 80.444,234.555 81.263,233.766 82.022 C 226.949 88.574,234.858 97.087,241.867 90.740 L 244.048 88.764 246.203 90.734 C 253.008 96.952,260.864 89.028,254.589 82.275 C 252.409 79.929,252.403 80.230,254.674 77.925 C 261.234 71.264,252.715 63.462,245.936 69.923 L 244.072 71.699 242.136 69.905 C 239.127 67.118,237.262 66.564,234.800 67.726 M195.000 98.238 C 189.058 98.833,182.389 100.805,176.607 103.676 C 170.921 106.501,170.526 112.508,175.871 114.873 C 177.955 115.794,178.949 115.636,183.162 113.709 C 185.469 112.654,186.413 112.327,189.800 111.409 C 198.602 109.026,208.406 109.873,216.959 113.757 C 222.722 116.375,225.867 115.649,227.581 111.307 C 229.609 106.170,223.542 101.971,209.800 98.998 C 207.008 98.394,198.037 97.933,195.000 98.238 M150.236 128.205 C 147.696 129.175,146.042 130.707,143.763 134.204 C 141.922 137.028,140.452 139.504,135.094 148.800 C 134.650 149.570,133.838 151.010,133.289 152.000 C 132.739 152.990,131.620 154.970,130.800 156.400 C 121.114 173.304,120.806 174.310,124.278 177.676 L 125.643 179.000 137.502 179.117 C 151.801 179.259,150.589 178.699,150.239 185.002 C 149.811 192.714,151.674 196.000,156.475 196.000 C 160.660 196.000,162.091 193.433,162.382 185.400 L 162.600 179.400 164.221 179.184 C 171.126 178.262,171.322 169.130,164.471 167.503 L 162.400 167.011 162.400 151.652 C 162.400 141.770,162.245 135.776,161.966 134.845 C 160.371 129.519,154.903 126.424,150.236 128.205 M258.651 128.187 C 255.800 129.203,252.669 132.498,250.085 137.200 C 249.661 137.970,247.399 141.898,245.058 145.929 C 242.716 149.960,240.800 153.327,240.800 153.411 C 240.800 153.496,240.235 154.518,239.544 155.682 C 238.853 156.847,237.863 158.565,237.344 159.500 C 236.825 160.435,235.975 161.965,235.457 162.900 C 234.938 163.835,234.104 165.320,233.603 166.200 C 230.143 172.287,229.840 173.600,231.307 176.158 C 232.999 179.111,233.451 179.200,246.694 179.200 C 255.756 179.200,258.415 179.313,258.467 179.700 C 258.505 179.975,258.550 182.823,258.567 186.029 C 258.609 193.408,260.174 196.043,264.480 195.981 C 269.015 195.915,270.400 193.569,270.400 185.955 C 270.400 179.376,270.318 179.573,273.271 179.040 C 279.704 177.880,278.940 168.414,272.328 167.345 L 270.856 167.107 270.728 151.053 L 270.600 135.000 269.540 133.000 C 267.186 128.560,262.908 126.670,258.651 128.187 M195.459 128.620 C 188.021 130.098,181.293 136.090,178.725 143.524 C 177.290 147.677,177.285 179.094,178.718 183.282 C 185.877 204.193,215.245 203.543,221.349 182.338 C 222.459 178.483,222.310 147.483,221.164 143.966 C 217.529 132.806,206.756 126.375,195.459 128.620 M202.777 140.630 C 205.499 141.438,208.487 144.160,209.481 146.737 C 210.127 148.411,210.200 150.121,210.200 163.600 L 210.200 178.600 209.049 180.944 C 205.294 188.591,194.786 188.623,190.665 181.000 C 189.670 179.159,189.091 150.975,189.981 147.671 C 191.446 142.229,197.305 139.005,202.777 140.630 M150.220 166.692 C 149.997 167.272,138.800 167.450,138.800 166.873 C 138.800 166.479,148.993 148.531,149.703 147.676 C 150.202 147.073,150.702 165.437,150.220 166.692 M258.707 157.427 L 258.600 167.000 252.900 167.111 C 246.856 167.229,246.553 167.128,247.737 165.389 C 248.033 164.955,248.817 163.610,249.479 162.400 C 250.141 161.190,251.096 159.480,251.602 158.600 C 252.107 157.720,253.079 156.010,253.761 154.800 C 256.942 149.152,258.192 147.232,258.491 147.531 C 258.669 147.709,258.766 152.162,258.707 157.427 " stroke="none" fill="#e47cb4" fill-rule="evenodd"></path><path id="path2" d="M191.354 35.500 L 26.508 35.601 25.454 36.655 L 24.400 37.709 24.400 132.575 C 24.400 231.844,24.350 228.876,26.057 229.943 C 26.556 230.254,362.505 230.715,372.845 230.419 C 373.200 230.408,373.965 229.925,374.545 229.345 L 375.600 228.291 375.600 133.045 L 375.599 37.800 374.666 36.716 L 373.734 35.631 364.967 35.516 C 360.145 35.452,282.019 35.445,191.354 35.500 M152.422 68.339 C 153.400 68.966,154.543 69.866,154.962 70.339 C 155.941 71.445,156.039 71.432,157.548 69.990 C 161.364 66.343,165.120 66.250,167.779 69.737 C 169.788 72.371,168.880 76.451,165.637 79.371 L 164.780 80.142 165.923 81.371 C 169.219 84.916,169.830 87.974,167.779 90.663 C 165.120 94.150,161.364 94.057,157.548 90.410 C 156.039 88.968,155.941 88.955,154.962 90.061 C 150.907 94.640,144.900 93.955,143.226 88.724 C 142.562 86.649,143.263 84.593,145.444 82.218 C 146.410 81.166,147.200 80.258,147.200 80.200 C 147.200 80.142,146.410 79.234,145.444 78.182 C 139.890 72.133,145.654 64.003,152.422 68.339 M240.138 68.096 C 240.832 68.588,241.922 69.488,242.559 70.096 C 243.991 71.460,244.175 71.462,245.512 70.124 C 249.566 66.070,254.340 66.306,256.387 70.662 C 257.730 73.518,257.242 75.470,254.424 78.527 L 252.788 80.303 254.598 82.220 C 261.152 89.158,253.163 97.180,246.109 90.743 C 244.083 88.895,244.006 88.886,242.547 90.357 C 235.825 97.132,226.780 89.700,233.200 82.676 C 235.532 80.125,235.555 80.019,234.078 78.758 C 227.873 73.462,233.573 63.435,240.138 68.096 M209.619 98.791 C 210.598 99.051,212.120 99.450,213.000 99.679 C 226.220 103.114,230.992 107.908,226.503 113.243 C 224.236 115.936,222.106 116.157,217.579 114.167 C 205.551 108.879,194.449 108.879,182.421 114.167 C 177.942 116.136,175.732 115.898,173.464 113.203 C 168.670 107.505,174.511 102.547,190.400 98.829 C 194.229 97.933,206.291 97.909,209.619 98.791 M157.827 129.023 C 159.128 129.834,160.102 130.884,160.958 132.400 L 162.200 134.600 162.400 150.782 L 162.600 166.965 164.143 167.285 C 171.200 168.750,171.492 177.587,164.541 179.356 L 162.600 179.850 162.400 185.825 C 162.146 193.405,161.133 195.363,157.193 195.892 C 151.997 196.589,150.000 193.613,150.000 185.173 L 150.000 179.644 138.300 179.522 C 124.775 179.381,124.568 179.332,122.832 175.839 C 121.647 173.457,121.956 171.798,124.357 167.649 C 125.200 166.192,126.390 164.100,127.001 163.000 C 127.612 161.900,128.537 160.235,129.056 159.300 C 129.575 158.365,130.476 156.745,131.058 155.700 C 131.640 154.655,132.658 152.810,133.319 151.600 C 133.981 150.390,134.855 148.922,135.261 148.338 C 135.667 147.754,136.000 147.165,136.000 147.030 C 136.000 146.894,136.427 146.112,136.949 145.291 C 137.471 144.471,139.305 141.402,141.024 138.471 C 147.174 127.988,151.900 125.330,157.827 129.023 M265.000 128.358 C 270.302 130.813,270.579 131.894,270.725 150.722 C 270.818 162.742,270.970 166.877,271.325 166.975 C 275.564 168.142,277.333 169.570,277.832 172.229 C 278.515 175.872,275.260 179.578,271.360 179.598 C 271.069 179.599,270.844 181.705,270.694 185.819 C 270.406 193.695,269.022 196.000,264.580 196.000 C 259.913 196.000,258.400 193.421,258.400 185.465 L 258.400 179.600 247.300 179.582 C 233.952 179.561,232.694 179.275,230.997 175.874 C 229.876 173.626,230.220 172.192,233.167 166.833 C 237.216 159.469,243.944 147.538,246.382 143.400 C 247.548 141.420,248.812 139.260,249.190 138.600 C 254.775 128.854,259.483 125.804,265.000 128.358 M204.942 128.625 C 213.025 130.682,219.378 136.912,221.641 145.000 C 222.456 147.915,222.452 178.904,221.636 181.800 C 215.569 203.332,187.164 204.761,178.695 183.960 C 177.590 181.244,177.291 147.291,178.346 144.200 C 179.975 139.425,182.941 135.135,186.323 132.662 C 189.541 130.309,190.983 129.653,195.600 128.440 C 197.821 127.856,202.268 127.945,204.942 128.625 M196.364 140.924 C 194.090 141.775,192.224 143.426,190.965 145.698 L 189.800 147.800 189.800 163.400 C 189.800 180.633,189.760 180.332,192.442 183.387 C 197.352 188.979,207.393 186.808,209.524 179.694 C 210.455 176.590,210.153 148.577,209.166 146.400 C 206.980 141.578,201.210 139.110,196.364 140.924 M256.692 149.921 C 255.867 151.395,254.719 153.410,254.140 154.400 C 250.762 160.174,247.200 166.610,247.200 166.938 C 247.200 167.082,249.695 167.200,252.744 167.200 L 258.288 167.200 258.578 157.825 C 258.919 146.798,258.776 146.200,256.692 149.921 M144.297 157.076 C 141.319 162.314,139.013 166.740,139.173 166.912 C 139.333 167.084,141.880 167.174,144.832 167.112 L 150.200 167.000 150.308 157.628 C 150.367 152.473,150.257 148.097,150.064 147.904 C 149.862 147.702,147.406 151.610,144.297 157.076 M0.139 277.100 C 0.305 300.133,0.293 299.714,0.800 299.400 C 0.993 299.280,1.160 299.502,1.171 299.891 C 1.212 301.441,1.349 302.000,1.687 302.000 C 1.882 302.000,2.230 302.540,2.460 303.200 C 2.690 303.860,3.060 304.400,3.282 304.400 C 3.504 304.400,3.582 304.670,3.455 305.000 C 3.329 305.330,3.419 305.600,3.655 305.600 C 3.892 305.600,3.989 305.852,3.870 306.161 C 3.743 306.494,3.968 306.803,4.428 306.923 C 4.911 307.050,5.202 307.476,5.206 308.063 C 5.211 308.815,5.289 308.881,5.600 308.400 C 5.928 307.892,5.989 307.912,5.994 308.529 C 6.002 309.484,7.067 310.530,7.659 310.164 C 7.937 309.991,8.016 310.050,7.855 310.311 C 7.707 310.550,7.990 311.028,8.482 311.373 C 8.975 311.718,9.203 312.004,8.989 312.009 C 8.300 312.025,10.575 313.582,11.300 313.591 C 11.685 313.596,11.979 313.735,11.953 313.900 C 11.830 314.674,12.035 315.226,12.368 315.020 C 12.570 314.895,13.010 315.068,13.346 315.403 C 13.682 315.739,14.102 315.990,14.279 315.960 C 15.153 315.811,15.621 316.045,15.359 316.500 C 15.201 316.775,15.221 316.864,15.404 316.699 C 15.587 316.533,16.156 316.672,16.668 317.008 C 17.371 317.468,17.602 317.493,17.606 317.109 C 17.610 316.757,17.732 316.786,18.000 317.200 C 18.213 317.530,18.393 317.620,18.400 317.400 C 18.407 317.180,18.548 317.213,18.714 317.474 C 18.879 317.735,19.462 318.009,20.007 318.084 C 20.553 318.159,21.259 318.383,21.576 318.581 C 21.949 318.814,22.208 318.776,22.309 318.474 C 22.427 318.118,22.672 318.118,23.332 318.471 C 23.810 318.726,24.245 318.905,24.300 318.868 C 24.355 318.830,24.535 318.804,24.700 318.809 C 38.684 319.211,159.847 318.658,160.109 318.192 C 160.613 317.290,239.798 317.296,240.144 318.197 C 240.345 318.722,247.167 318.807,296.591 318.897 C 336.827 318.971,352.762 318.877,352.643 318.567 C 352.551 318.328,352.684 318.121,352.938 318.107 C 354.613 318.011,357.451 317.494,358.043 317.177 C 358.431 316.970,359.173 316.800,359.694 316.800 C 360.214 316.800,360.811 316.649,361.020 316.464 C 361.229 316.279,362.030 315.888,362.800 315.594 C 367.954 313.629,376.400 305.572,376.400 302.622 C 376.400 302.280,376.580 302.000,376.800 302.000 C 377.020 302.000,377.200 301.728,377.200 301.395 C 377.200 301.062,377.356 300.477,377.546 300.095 C 378.919 297.342,378.963 296.670,379.105 276.300 L 379.247 256.000 189.616 256.000 L -0.014 256.000 0.139 277.100 M216.698 280.615 C 219.534 281.800,220.800 283.736,220.800 286.888 C 220.800 289.396,219.066 292.400,217.618 292.400 C 217.388 292.400,217.200 292.580,217.200 292.800 C 217.200 293.060,211.200 293.200,200.000 293.200 C 188.800 293.200,182.800 293.060,182.800 292.800 C 182.800 292.580,182.612 292.400,182.382 292.400 C 182.152 292.400,181.545 291.981,181.033 291.469 C 177.848 288.284,178.788 282.857,182.867 280.880 C 185.192 279.753,214.094 279.527,216.698 280.615 " stroke="none" fill="#eaf4f4" fill-rule="evenodd"></path><path id="path3" d="M25.905 35.629 C 25.523 35.852,25.001 36.432,24.746 36.917 C 24.354 37.663,24.455 37.629,25.395 36.700 L 26.508 35.601 191.554 35.500 L 356.600 35.399 191.600 35.312 C 80.818 35.253,26.372 35.357,25.905 35.629 M365.160 35.500 L 373.721 35.616 374.660 36.708 C 375.176 37.309,375.599 37.606,375.600 37.370 C 375.602 35.485,374.149 35.196,365.174 35.292 L 356.600 35.383 365.160 35.500 M375.797 133.000 C 375.797 184.920,375.843 206.101,375.900 180.068 C 375.957 154.035,375.957 111.555,375.900 85.668 C 375.843 59.781,375.797 81.080,375.797 133.000 M153.200 68.925 C 153.200 68.994,153.785 69.579,154.500 70.225 L 155.800 71.400 154.625 70.100 C 153.530 68.888,153.200 68.616,153.200 68.925 M256.893 73.200 C 256.893 73.970,256.975 74.285,257.076 73.900 C 257.176 73.515,257.176 72.885,257.076 72.500 C 256.975 72.115,256.893 72.430,256.893 73.200 M253.978 78.700 L 252.600 80.200 254.100 78.822 C 255.496 77.538,255.784 77.200,255.478 77.200 C 255.412 77.200,254.737 77.875,253.978 78.700 M165.775 78.900 L 164.600 80.200 165.900 79.025 C 167.112 77.930,167.384 77.600,167.075 77.600 C 167.006 77.600,166.421 78.185,165.775 78.900 M164.800 80.525 C 164.800 80.594,165.385 81.179,166.100 81.825 L 167.400 83.000 166.225 81.700 C 165.130 80.488,164.800 80.216,164.800 80.525 M256.893 87.200 C 256.893 87.970,256.975 88.285,257.076 87.900 C 257.176 87.515,257.176 86.885,257.076 86.500 C 256.975 86.115,256.893 86.430,256.893 87.200 M154.175 90.500 L 153.000 91.800 154.300 90.625 C 155.512 89.530,155.784 89.200,155.475 89.200 C 155.406 89.200,154.821 89.785,154.175 90.500 M183.978 134.700 L 182.600 136.200 184.100 134.822 C 184.925 134.063,185.600 133.388,185.600 133.322 C 185.600 133.016,185.262 133.304,183.978 134.700 M199.300 140.276 C 199.685 140.376,200.315 140.376,200.700 140.276 C 201.085 140.175,200.770 140.093,200.000 140.093 C 199.230 140.093,198.915 140.175,199.300 140.276 M222.180 163.600 C 222.180 171.410,222.234 174.605,222.299 170.700 C 222.365 166.795,222.365 160.405,222.299 156.500 C 222.234 152.595,222.180 155.790,222.180 163.600 M210.180 163.400 C 210.180 170.880,210.234 173.883,210.299 170.074 C 210.365 166.265,210.365 160.145,210.299 156.474 C 210.233 152.803,210.179 155.920,210.180 163.400 M258.555 161.800 C 258.556 164.660,258.620 165.778,258.697 164.283 C 258.774 162.789,258.774 160.449,258.696 159.083 C 258.618 157.718,258.555 158.940,258.555 161.800 M133.124 179.499 C 136.273 179.567,141.313 179.567,144.324 179.499 C 147.336 179.431,144.760 179.376,138.600 179.376 C 132.440 179.376,129.976 179.432,133.124 179.499 M241.500 179.499 C 244.635 179.567,249.765 179.567,252.900 179.499 C 256.035 179.432,253.470 179.376,247.200 179.376 C 240.930 179.376,238.365 179.432,241.500 179.499 M150.137 183.000 C 150.139 184.760,150.209 185.430,150.293 184.489 C 150.378 183.549,150.377 182.109,150.291 181.289 C 150.205 180.470,150.136 181.240,150.137 183.000 M258.520 182.000 C 258.520 183.210,258.595 183.705,258.687 183.100 C 258.778 182.495,258.778 181.505,258.687 180.900 C 258.595 180.295,258.520 180.790,258.520 182.000 M270.551 184.400 C 270.551 186.930,270.616 187.965,270.696 186.700 C 270.775 185.435,270.775 183.365,270.696 182.100 C 270.616 180.835,270.551 181.870,270.551 184.400 M374.920 228.900 C 374.744 229.175,374.292 229.642,373.915 229.937 C 373.343 230.384,344.354 230.467,199.915 230.433 C 84.828 230.406,26.802 230.525,27.200 230.790 C 28.377 231.571,372.636 231.326,373.830 230.543 C 374.382 230.182,375.012 229.552,375.230 229.143 C 375.674 228.315,375.421 228.117,374.920 228.900 M0.200 255.600 C 0.035 255.866,63.270 256.000,189.600 256.000 L 379.247 256.000 379.105 276.300 C 378.963 296.670,378.919 297.342,377.546 300.095 C 377.356 300.477,377.200 301.062,377.200 301.395 C 377.200 301.728,377.020 302.000,376.800 302.000 C 376.580 302.000,376.400 302.280,376.400 302.622 C 376.400 305.572,367.954 313.629,362.800 315.594 C 362.030 315.888,361.229 316.279,361.020 316.464 C 360.811 316.649,360.214 316.800,359.694 316.800 C 359.173 316.800,358.431 316.970,358.043 317.177 C 357.451 317.494,354.613 318.011,352.938 318.107 C 352.684 318.121,352.568 318.373,352.681 318.667 C 352.938 319.335,377.600 319.467,377.600 318.800 C 377.600 318.580,378.320 318.400,379.200 318.400 C 380.080 318.400,380.800 318.220,380.800 318.000 C 380.800 317.780,381.340 317.600,382.000 317.600 C 382.660 317.600,383.200 317.420,383.200 317.200 C 383.200 316.980,383.560 316.800,384.000 316.800 C 384.440 316.800,384.800 316.620,384.800 316.400 C 384.800 316.180,385.160 316.000,385.600 316.000 C 386.040 316.000,386.400 315.820,386.400 315.600 C 386.400 315.380,386.625 315.197,386.900 315.193 C 387.721 315.181,394.800 308.920,394.800 308.205 C 394.800 308.074,395.160 307.580,395.600 307.108 C 396.040 306.636,396.400 306.013,396.400 305.725 C 396.400 305.436,396.580 305.200,396.800 305.200 C 397.020 305.200,397.200 304.930,397.200 304.600 C 397.200 304.270,397.380 304.000,397.600 304.000 C 397.820 304.000,398.000 303.728,398.000 303.395 C 398.000 302.771,398.266 302.128,399.238 300.400 C 399.697 299.582,399.822 295.416,399.922 277.565 L 400.043 255.731 384.356 255.465 C 358.070 255.021,0.481 255.146,0.200 255.600 M182.867 280.880 C 178.788 282.857,177.848 288.284,181.033 291.469 C 181.545 291.981,182.152 292.400,182.382 292.400 C 182.612 292.400,182.800 292.580,182.800 292.800 C 182.800 293.060,188.800 293.200,200.000 293.200 C 211.200 293.200,217.200 293.060,217.200 292.800 C 217.200 292.580,217.388 292.400,217.618 292.400 C 219.066 292.400,220.800 289.396,220.800 286.888 C 220.800 283.736,219.534 281.800,216.698 280.615 C 214.094 279.527,185.192 279.753,182.867 280.880 M160.105 318.199 C 159.810 318.726,151.936 318.810,94.185 318.901 C 58.113 318.958,58.300 318.958,94.600 318.902 C 178.140 318.772,224.955 318.772,295.800 318.902 C 326.820 318.959,327.039 318.959,296.287 318.901 C 247.078 318.810,240.346 318.725,240.144 318.199 C 239.795 317.290,160.613 317.290,160.105 318.199 M22.400 318.501 C 22.400 318.809,22.934 319.071,23.679 319.127 C 24.828 319.215,25.201 318.976,24.200 318.794 C 23.980 318.754,23.485 318.553,23.100 318.346 C 22.597 318.077,22.400 318.121,22.400 318.501 " stroke="none" fill="#b2d0d2" fill-rule="evenodd"></path><path id="path4" d="M108.933 9.900 C 153.556 9.956,226.456 9.956,270.933 9.900 C 315.410 9.844,278.900 9.798,189.800 9.798 C 100.700 9.798,64.310 9.844,108.933 9.900 M190.754 34.700 L 26.108 34.801 25.054 35.855 L 24.000 36.909 24.000 132.850 C 24.000 239.314,23.755 229.597,26.480 231.032 C 28.084 231.876,372.149 231.890,373.777 231.046 C 375.202 230.306,375.980 229.217,375.951 228.000 C 375.931 227.114,375.886 227.145,375.559 228.277 C 375.355 228.979,374.669 229.924,374.033 230.377 L 372.877 231.200 200.412 231.200 C 73.448 231.200,27.717 231.081,27.074 230.750 C 26.593 230.503,25.795 229.931,25.300 229.480 L 24.400 228.661 24.400 132.912 L 24.400 37.164 25.382 36.182 L 26.364 35.200 200.112 35.200 L 373.861 35.200 374.695 36.100 C 375.154 36.595,375.611 37.450,375.710 38.000 C 375.880 38.939,375.894 38.930,375.946 37.847 C 376.003 36.623,374.950 35.405,373.274 34.758 C 372.765 34.561,368.535 34.445,363.874 34.500 C 359.213 34.554,281.309 34.644,190.754 34.700 M376.197 133.000 C 376.197 184.700,376.243 205.909,376.300 180.132 C 376.357 154.355,376.357 112.055,376.300 86.132 C 376.243 60.209,376.197 81.300,376.197 133.000 M0.000 255.100 C 0.000 255.265,90.045 255.400,200.100 255.400 C 310.155 255.400,395.070 255.290,388.800 255.155 C 372.179 254.798,-0.000 254.745,0.000 255.100 M180.300 318.700 C 191.135 318.759,208.865 318.759,219.700 318.700 C 230.535 318.641,221.670 318.592,200.000 318.592 C 178.330 318.592,169.465 318.641,180.300 318.700 " stroke="none" fill="#7494a4" fill-rule="evenodd"></path></g></svg>