<?xml version="1.0" encoding="UTF-8"?>
<!DOCTYPE svg PUBLIC "-//W3C//DTD SVG 1.1//EN" "http://www.w3.org/Graphics/SVG/1.1/DTD/svg11.dtd">
<svg xmlns="http://www.w3.org/2000/svg" version="1.1" width="256px" height="256px" style="shape-rendering:geometricPrecision; text-rendering:geometricPrecision; image-rendering:optimizeQuality; fill-rule:evenodd; clip-rule:evenodd" xmlns:xlink="http://www.w3.org/1999/xlink">
<g><path style="opacity:0.997" fill="#eeeeed" d="M 41.5,-0.5 C 112.833,-0.5 184.167,-0.5 255.5,-0.5C 255.5,63.5 255.5,127.5 255.5,191.5C 234.167,191.5 212.833,191.5 191.5,191.5C 169.833,212.5 148.5,233.833 127.5,255.5C 98.8333,255.5 70.1667,255.5 41.5,255.5C 41.5,216.5 41.5,177.5 41.5,138.5C 41.8333,138.5 42.1667,138.5 42.5,138.5C 85.1667,138.5 127.833,138.5 170.5,138.5C 170.831,113.328 170.498,88.3278 169.5,63.5C 126.833,63.5 84.1667,63.5 41.5,63.5C 41.5,42.1667 41.5,20.8333 41.5,-0.5 Z"/></g>
<g><path style="opacity:0.999" fill="#e16344" d="M -0.5,63.5 C 13.5,63.5 27.5,63.5 41.5,63.5C 84.1667,63.5 126.833,63.5 169.5,63.5C 169.5,88.1667 169.5,112.833 169.5,137.5C 126.997,137.168 84.6634,137.501 42.5,138.5C 42.1667,138.5 41.8333,138.5 41.5,138.5C 27.5,138.5 13.5,138.5 -0.5,138.5C -0.5,113.5 -0.5,88.5 -0.5,63.5 Z"/></g>
<g><path style="opacity:1" fill="#fef8f7" d="M 44.5,111.5 C 45.4614,109.735 45.7947,107.735 45.5,105.5C 43.1667,105.5 40.8333,105.5 38.5,105.5C 38.5,103.5 38.5,101.5 38.5,99.5C 43.5,99.5 48.5,99.5 53.5,99.5C 53.5,107.5 53.5,115.5 53.5,123.5C 51.1667,123.5 48.8333,123.5 46.5,123.5C 46.557,119.867 45.557,119.7 43.5,123C 32.4545,126.731 25.9545,122.897 24,111.5C 23.3333,104.5 23.3333,97.5 24,90.5C 27.2905,77.772 35.1238,73.9387 47.5,79C 51.2147,81.9292 53.2147,85.7625 53.5,90.5C 50.5719,91.4841 47.5719,91.8174 44.5,91.5C 44.3119,86.1369 41.6452,83.9703 36.5,85C 35.1068,86.1711 34.2735,87.6711 34,89.5C 33.3333,97.5 33.3333,105.5 34,113.5C 35.3339,117.104 37.8339,118.271 41.5,117C 43.607,115.736 44.607,113.903 44.5,111.5 Z"/></g>
<g><path style="opacity:1" fill="#fefffe" d="M 66.5,78.5 C 69.5,78.5 72.5,78.5 75.5,78.5C 75.5,93.5 75.5,108.5 75.5,123.5C 72.5,123.5 69.5,123.5 66.5,123.5C 66.5,108.5 66.5,93.5 66.5,78.5 Z"/></g>
<g><path style="opacity:1" fill="#fefffe" d="M 115.5,85.5 C 112.167,85.5 108.833,85.5 105.5,85.5C 105.5,98.1667 105.5,110.833 105.5,123.5C 102.5,123.5 99.5,123.5 96.5,123.5C 96.5,110.833 96.5,98.1667 96.5,85.5C 93.1667,85.5 89.8333,85.5 86.5,85.5C 86.5,83.1667 86.5,80.8333 86.5,78.5C 96.1667,78.5 105.833,78.5 115.5,78.5C 115.5,80.8333 115.5,83.1667 115.5,85.5 Z"/></g>
<g><path style="opacity:1" fill="#e67e65" d="M 115.5,85.5 C 112.713,86.4767 109.713,86.81 106.5,86.5C 106.829,99.0113 106.495,111.345 105.5,123.5C 105.5,110.833 105.5,98.1667 105.5,85.5C 108.833,85.5 112.167,85.5 115.5,85.5 Z"/></g>
<g><path style="opacity:1" fill="#f3bfb1" d="M 38.5,105.5 C 40.8333,105.5 43.1667,105.5 45.5,105.5C 45.7947,107.735 45.4614,109.735 44.5,111.5C 44.5,109.833 44.5,108.167 44.5,106.5C 42.2646,106.795 40.2646,106.461 38.5,105.5 Z"/></g>
<g><path style="opacity:1" fill="#e6927e" d="M 169.5,63.5 C 170.498,88.3278 170.831,113.328 170.5,138.5C 127.833,138.5 85.1667,138.5 42.5,138.5C 84.6634,137.501 126.997,137.168 169.5,137.5C 169.5,112.833 169.5,88.1667 169.5,63.5 Z"/></g>
<g><path style="opacity:1" fill="#ababab" d="M 191.5,191.5 C 212.833,191.5 234.167,191.5 255.5,191.5C 255.5,191.833 255.5,192.167 255.5,192.5C 234.167,213.167 213.167,234.167 192.5,255.5C 192.167,255.5 191.833,255.5 191.5,255.5C 191.5,234.167 191.5,212.833 191.5,191.5 Z"/></g>
<g><path style="opacity:1" fill="#dededd" d="M 191.5,191.5 C 191.5,212.833 191.5,234.167 191.5,255.5C 170.167,255.5 148.833,255.5 127.5,255.5C 148.5,233.833 169.833,212.5 191.5,191.5 Z"/></g>
</svg>
